<?xml version="1.0" standalone="no"?>
<!DOCTYPE svg PUBLIC "-//W3C//DTD SVG 20010904//EN"
 "http://www.w3.org/TR/2001/REC-SVG-20010904/DTD/svg10.dtd">
<svg version="1.0" xmlns="http://www.w3.org/2000/svg"
 width="682.000000pt" height="682.000000pt" viewBox="0 0 682.000000 682.000000"
 preserveAspectRatio="xMidYMid meet">
<metadata>
Created by potrace 1.14, written by Peter Selinger 2001-2017
</metadata>
<g transform="translate(0.000000,682.000000) scale(0.100000,-0.100000)"
fill="#000000" stroke="none">
<path d="M1070 6529 c-339 -39 -611 -194 -809 -459 -94 -126 -184 -324 -206
-453 -3 -18 -8 -45 -11 -62 -3 -16 -7 -88 -9 -160 -8 -450 251 -864 659 -1056
77 -36 191 -76 241 -85 142 -24 316 -33 385 -19 13 2 42 7 65 10 68 10 262 70
275 85 5 5 57 30 64 30 4 0 61 -95 103 -170 11 -19 51 -89 90 -155 124 -214
490 -849 511 -887 12 -20 32 -55 46 -77 15 -22 26 -43 26 -46 0 -2 18 -34 40
-70 22 -36 40 -68 40 -72 0 -3 6 -14 14 -22 7 -9 27 -41 43 -71 44 -81 183
-322 199 -345 21 -30 17 -41 -23 -66 -257 -156 -469 -464 -519 -754 -4 -22 -9
-49 -11 -60 -11 -44 -9 -277 2 -341 25 -141 87 -315 140 -396 14 -21 25 -40
25 -44 0 -15 102 -137 175 -209 163 -161 362 -264 600 -310 88 -17 307 -17
403 0 357 64 667 298 835 630 132 264 151 622 48 900 -77 205 -204 381 -373
514 -70 54 -74 60 -59 76 5 6 20 30 33 55 14 25 55 96 92 159 36 62 66 115 66
116 0 1 29 52 64 113 36 61 76 131 89 154 14 24 75 131 137 238 62 107 124
216 139 241 21 36 324 564 366 637 6 9 36 63 69 120 32 56 61 102 64 102 2 0
48 -14 101 -31 131 -42 236 -59 361 -59 109 0 128 2 230 20 341 62 662 311
814 632 33 69 46 100 52 123 1 6 9 30 17 55 33 99 41 163 41 325 0 72 -3 148
-7 170 -4 22 -10 56 -13 75 -3 19 -10 43 -15 52 -5 9 -9 24 -9 34 0 36 -119
286 -150 314 -3 3 -18 24 -33 46 -15 23 -57 72 -93 108 -271 278 -661 402
-1042 331 -15 -3 -40 -7 -57 -10 -16 -3 -57 -15 -90 -27 -309 -106 -543 -315
-686 -610 -16 -32 -26 -58 -22 -58 3 0 1 -6 -4 -12 -31 -39 -79 -266 -82 -388
l-1 -25 -1082 3 c-595 1 -1083 4 -1084 5 -1 1 -5 40 -9 87 -3 46 -8 87 -10 90
-2 3 -6 25 -10 50 -4 24 -10 51 -14 60 -5 8 -11 29 -14 47 -12 62 -125 291
-149 301 -4 2 -8 8 -8 13 0 9 -4 14 -73 97 -230 274 -630 433 -987 391z"/>
</g>
</svg>
